<?xml version="1.0" encoding="utf-8"?>
<?xml-stylesheet type="text/xsl" href="rss1.xsl"?>
<rss version="2.0" xmlns:atom="http://www.w3.org/2005/Atom" xmlns:content="http://purl.org/rss/1.0/modules/content/" xmlns:dc="http://purl.org/dc/elements/1.1/" xmlns:media="http://search.yahoo.com/mrss/">
<channel>
 <title>Getty</title>
 <link>http://www.gettyimg.com/</link>
 <atom:link href="http://www.gettyimg.com/" rel="self" type="application/rss+xml" />

 
                <item>
                <title><![CDATA[【Apple Music】PACK - Billie Eilish - HIT ME HARD AND SOFT VIDEOS 'A.M WEB-DL.1080.AAC2.0-fstambuk']]></title>
                <link><![CDATA[https://sharemania.us/threads/billie-eilish-hit-me-hard-and-soft-videos-a-m-web-dl-1080-aac2-0-fstambuk.244996/]]></link>
                <description><![CDATA[<article>
<blockquote class="messageText SelectQuoteContainer ugc baseHtml">
<div style="text-align: center"><a href="https://ibb.co/82YfSSH" target="_blank" class="externalLink" rel="nofollow"><img src="https://i.ibb.co/82YfSSH/BITTERSUITE-BILLIE-BY-FINNEAS.jpg" class="bbCodeImage LbImage" alt="[​IMG]" data-url="https://i.ibb.co/82YfSSH/BITTERSUITE-BILLIE-BY-FINNEAS.jpg"></a> <a href="https://ibb.co/FWHFyDb" target="_blank" class="externalLink" rel="nofollow"><img src="https://i.ibb.co/FWHFyDb/BIRDS-OF-A-FEATHER-BILLIE-BY-FINNEAS.jpg" class="bbCodeImage LbImage" alt="[​IMG]" data-url="https://i.ibb.co/FWHFyDb/BIRDS-OF-A-FEATHER-BILLIE-BY-FINNEAS.jpg"></a> <a href="https://ibb.co/BB96Kyp" target="_blank" class="externalLink" rel="nofollow"><img src="https://i.ibb.co/BB96Kyp/WILDFLOWER-BILLIE-BY-FINNEAS.jpg" class="bbCodeImage LbImage" alt="[​IMG]" data-url="https://i.ibb.co/BB96Kyp/WILDFLOWER-BILLIE-BY-FINNEAS.jpg"></a> <a href="https://ibb.co/8xgMy3K" target="_blank" class="externalLink" rel="nofollow"><img src="https://i.ibb.co/8xgMy3K/THE-GREATEST-BILLIE-BY-FINNEAS.jpg" class="bbCodeImage LbImage" alt="[​IMG]" data-url="https://i.ibb.co/8xgMy3K/THE-GREATEST-BILLIE-BY-FINNEAS.jpg"></a> <a href="https://ibb.co/yWk66hx" target="_blank" class="externalLink" rel="nofollow"><img src="https://i.ibb.co/yWk66hx/THE-DINER-BILLIE-BY-FINNEAS.jpg" class="bbCodeImage LbImage" alt="[​IMG]" data-url="https://i.ibb.co/yWk66hx/THE-DINER-BILLIE-BY-FINNEAS.jpg"></a> <a href="https://ibb.co/KG0DGZX" target="_blank" class="externalLink" rel="nofollow"><img src="https://i.ibb.co/KG0DGZX/LUNCH-BILLIE-BY-FINNEAS.jpg" class="bbCodeImage LbImage" alt="[​IMG]" data-url="https://i.ibb.co/KG0DGZX/LUNCH-BILLIE-BY-FINNEAS.jpg"></a> <a href="https://ibb.co/D7RmZGR" target="_blank" class="externalLink" rel="nofollow"><img src="https://i.ibb.co/D7RmZGR/L-AMOUR-DE-MA-VIE-BILLIE-BY-FINNEAS.jpg" class="bbCodeImage LbImage" alt="[​IMG]" data-url="https://i.ibb.co/D7RmZGR/L-AMOUR-DE-MA-VIE-BILLIE-BY-FINNEAS.jpg"></a> <a href="https://ibb.co/Y7KjtB9" target="_blank" class="externalLink" rel="nofollow"><img src="https://i.ibb.co/Y7KjtB9/CHIHIRO-BILLIE-BY-FINNEAS.jpg" class="bbCodeImage LbImage" alt="[​IMG]" data-url="https://i.ibb.co/Y7KjtB9/CHIHIRO-BILLIE-BY-FINNEAS.jpg"></a> <a href="https://ibb.co/FWXS9Nr" target="_blank" class="externalLink" rel="nofollow"><img src="https://i.ibb.co/FWXS9Nr/BLUE-BILLIE-BY-FINNEAS.jpg" class="bbCodeImage LbImage" alt="[​IMG]" data-url="https://i.ibb.co/FWXS9Nr/BLUE-BILLIE-BY-FINNEAS.jpg"></a><br>
<img src="https://i.postimg.cc/9FMGx2Bz/Sin-t-tulo-modified.png" class="bbCodeImage LbImage" alt="[​IMG]" data-url="https://i.postimg.cc/9FMGx2Bz/Sin-t-tulo-modified.png" style=""><br>
​</div>
<div class="ToggleTriggerAnchor bbCodeSpoilerContainer">
<button type="button" class="button bbCodeSpoilerButton ToggleTrigger Tooltip JsOnly" data-target="> .SpoilerTarget"><span>Spoiler: <span class="SpoilerTitle">Apple Music</span></span></button>
<div class="SpoilerTarget bbCodeSpoilerText">
<div class="bbCodeBlock bbCodeCode">
<div class="type">Code:</div>
<pre>General
Complete name                            : BIRDS OF A FEATHER (BILLIE BY FINNEAS).m4v
Format                                   : MPEG-4
Codec ID                                 : M4V  (M4V /isom/iso2/avc1)
File size                                : 169 MiB
Duration                                 : 3 min 29 s
Overall bit rate                         : 6 747 kb/s
Frame rate                               : 29.970 FPS
Movie name                               : BIRDS OF A FEATHER (BILLIE BY FINNEAS)
Performer                                : Billie Eilish
Genre                                    : Alternative
ContentType                              : Music Video
Recorded date                            : 2024-05-22 07:00:00 UTC
Copyright                                : ℗ 2024 Darkroom/Interscope Records
Cover                                    : Yes
Rating                                   : None
GenreID                                  : 1620
AlbumTitleID                             : 1065981054
AppleStoreCatalogID                      : 1747829121

Video
ID                                       : 1
Format                                   : AVC
Format/Info                              : Advanced Video Codec
Format profile                           : High@L4
Format settings                          : CABAC / 4 Ref Frames
Format settings, CABAC                   : Yes
Format settings, Reference frames        : 4 frames
Format settings, Slice count             : 8 slices per frame
Codec ID                                 : avc1
Codec ID/Info                            : Advanced Video Coding
Duration                                 : 3 min 29 s
Bit rate                                 : 6 470 kb/s
Width                                    : 1 920 pixels
Height                                   : 1 078 pixels
Display aspect ratio                     : 16:9
Frame rate mode                          : Constant
Frame rate                               : 29.970 (30000/1001) FPS
Color space                              : YUV
Chroma subsampling                       : 4:2:0
Bit depth                                : 8 bits
Scan type                                : Progressive
Bits/(Pixel*Frame)                       : 0.104
Stream size                              : 162 MiB (96%)
Title                                    : Core Media Video
Color range                              : Limited
Color primaries                          : BT.709
Transfer characteristics                 : BT.709
Matrix coefficients                      : BT.709
Codec configuration box                  : avcC

Audio
ID                                       : 2
Format                                   : AAC LC
Format/Info                              : Advanced Audio Codec Low Complexity
Codec ID                                 : 2 / 40 / mp4a-40-2
Duration                                 : 3 min 29 s
Bit rate mode                            : Constant
Bit rate                                 : 265 kb/s
Channel(s)                               : 2 channels
Channel layout                           : L R
Sampling rate                            : 48.0 kHz
Frame rate                               : 46.875 FPS (1024 SPF)
Compression mode                         : Lossy
Stream size                              : 6.49 MiB (4%)
Title                                    : Core Media Audio
Default                                  : Yes
Alternate group                          : 1

General
Complete name                            : BITTERSUITE (BILLIE BY FINNEAS).m4v
Format                                   : MPEG-4
Codec ID                                 : M4V  (M4V /isom/iso2/avc1)
File size                                : 234 MiB
Duration                                 : 4 min 58 s
Overall bit rate                         : 6 584 kb/s
Frame rate                               : 29.970 FPS
Movie name                               : BITTERSUITE (BILLIE BY FINNEAS)
Performer                                : Billie Eilish
Genre                                    : Alternative
ContentType                              : Music Video
Recorded date                            : 2024-05-22 07:00:00 UTC
Copyright                                : ℗ 2024 Darkroom/Interscope Records
Cover                                    : Yes
Rating                                   : None
GenreID                                  : 1620
AlbumTitleID                             : 1065981054
AppleStoreCatalogID                      : 1747831312

Video
ID                                       : 1
Format                                   : AVC
Format/Info                              : Advanced Video Codec
Format profile                           : High@L4
Format settings                          : CABAC / 4 Ref Frames
Format settings, CABAC                   : Yes
Format settings, Reference frames        : 4 frames
Format settings, Slice count             : 8 slices per frame
Codec ID                                 : avc1
Codec ID/Info                            : Advanced Video Coding
Duration                                 : 4 min 58 s
Bit rate                                 : 6 318 kb/s
Width                                    : 1 920 pixels
Height                                   : 1 078 pixels
Display aspect ratio                     : 16:9
Frame rate mode                          : Constant
Frame rate                               : 29.970 (30000/1001) FPS
Color space                              : YUV
Chroma subsampling                       : 4:2:0
Bit depth                                : 8 bits
Scan type                                : Progressive
Bits/(Pixel*Frame)                       : 0.102
Stream size                              : 225 MiB (96%)
Title                                    : Core Media Video
Color range                              : Limited
Color primaries                          : BT.709
Transfer characteristics                 : BT.709
Matrix coefficients                      : BT.709
Codec configuration box                  : avcC

Audio
ID                                       : 2
Format                                   : AAC LC
Format/Info                              : Advanced Audio Codec Low Complexity
Codec ID                                 : 2 / 40 / mp4a-40-2
Duration                                 : 4 min 58 s
Bit rate mode                            : Constant
Bit rate                                 : 251 kb/s
Channel(s)                               : 2 channels
Channel layout                           : L R
Sampling rate                            : 48.0 kHz
Frame rate                               : 46.875 FPS (1024 SPF)
Compression mode                         : Lossy
Stream size                              : 8.94 MiB (4%)
Title                                    : Core Media Audio
Default                                  : Yes
Alternate group                          : 1

General
Complete name                            : BLUE (BILLIE BY FINNEAS).m4v
Format                                   : MPEG-4
Codec ID                                 : M4V  (M4V /isom/iso2/avc1)
File size                                : 283 MiB
Duration                                 : 5 min 45 s
Overall bit rate                         : 6 864 kb/s
Frame rate                               : 29.970 FPS
Movie name                               : BLUE (BILLIE BY FINNEAS)
Performer                                : Billie Eilish
Genre                                    : Alternative
ContentType                              : Music Video
Recorded date                            : 2024-05-22 07:00:00 UTC
Copyright                                : ℗ 2024 Darkroom/Interscope Records
Cover                                    : Yes
Rating                                   : None
GenreID                                  : 1620
AlbumTitleID                             : 1065981054
AppleStoreCatalogID                      : 1747831376

Video
ID                                       : 1
Format                                   : AVC
Format/Info                              : Advanced Video Codec
Format profile                           : High@L4
Format settings                          : CABAC / 4 Ref Frames
Format settings, CABAC                   : Yes
Format settings, Reference frames        : 4 frames
Format settings, Slice count             : 8 slices per frame
Codec ID                                 : avc1
Codec ID/Info                            : Advanced Video Coding
Duration                                 : 5 min 45 s
Bit rate                                 : 6 596 kb/s
Width                                    : 1 920 pixels
Height                                   : 1 078 pixels
Display aspect ratio                     : 16:9
Frame rate mode                          : Constant
Frame rate                               : 29.970 (30000/1001) FPS
Color space                              : YUV
Chroma subsampling                       : 4:2:0
Bit depth                                : 8 bits
Scan type                                : Progressive
Bits/(Pixel*Frame)                       : 0.106
Stream size                              : 272 MiB (96%)
Title                                    : Core Media Video
Color range                              : Limited
Color primaries                          : BT.709
Transfer characteristics                 : BT.709
Matrix coefficients                      : BT.709
Codec configuration box                  : avcC

Audio
ID                                       : 2
Format                                   : AAC LC
Format/Info                              : Advanced Audio Codec Low Complexity
Codec ID                                 : 2 / 40 / mp4a-40-2
Duration                                 : 5 min 45 s
Bit rate mode                            : Constant
Bit rate                                 : 251 kb/s
Channel(s)                               : 2 channels
Channel layout                           : L R
Sampling rate                            : 48.0 kHz
Frame rate                               : 46.875 FPS (1024 SPF)
Compression mode                         : Lossy
Stream size                              : 10.4 MiB (4%)
Title                                    : Core Media Audio
Default                                  : Yes
Alternate group                          : 1

General
Complete name                            : CHIHIRO (BILLIE BY FINNEAS).m4v
Format                                   : MPEG-4
Codec ID                                 : M4V  (M4V /isom/iso2/avc1)
File size                                : 245 MiB
Duration                                 : 5 min 3 s
Overall bit rate                         : 6 762 kb/s
Frame rate                               : 29.970 FPS
Movie name                               : CHIHIRO (BILLIE BY FINNEAS)
Performer                                : Billie Eilish
Genre                                    : Alternative
ContentType                              : Music Video
Recorded date                            : 2024-05-22 07:00:00 UTC
Copyright                                : ℗ 2024 Darkroom/Interscope Records
Cover                                    : Yes
Rating                                   : None
GenreID                                  : 1620
AlbumTitleID                             : 1065981054
AppleStoreCatalogID                      : 1747830390

Video
ID                                       : 1
Format                                   : AVC
Format/Info                              : Advanced Video Codec
Format profile                           : High@L4
Format settings                          : CABAC / 4 Ref Frames
Format settings, CABAC                   : Yes
Format settings, Reference frames        : 4 frames
Format settings, Slice count             : 8 slices per frame
Codec ID                                 : avc1
Codec ID/Info                            : Advanced Video Coding
Duration                                 : 5 min 3 s
Bit rate                                 : 6 494 kb/s
Width                                    : 1 920 pixels
Height                                   : 1 078 pixels
Display aspect ratio                     : 16:9
Frame rate mode                          : Constant
Frame rate                               : 29.970 (30000/1001) FPS
Color space                              : YUV
Chroma subsampling                       : 4:2:0
Bit depth                                : 8 bits
Scan type                                : Progressive
Bits/(Pixel*Frame)                       : 0.105
Stream size                              : 235 MiB (96%)
Title                                    : Core Media Video
Color range                              : Limited
Color primaries                          : BT.709
Transfer characteristics                 : BT.709
Matrix coefficients                      : BT.709
Codec configuration box                  : avcC

Audio
ID                                       : 2
Format                                   : AAC LC
Format/Info                              : Advanced Audio Codec Low Complexity
Codec ID                                 : 2 / 40 / mp4a-40-2
Duration                                 : 5 min 3 s
Bit rate mode                            : Constant
Bit rate                                 : 252 kb/s
Channel(s)                               : 2 channels
Channel layout                           : L R
Sampling rate                            : 48.0 kHz
Frame rate                               : 46.875 FPS (1024 SPF)
Compression mode                         : Lossy
Stream size                              : 9.09 MiB (4%)
Title                                    : Core Media Audio
Default                                  : Yes
Alternate group                          : 1

General
Complete name                            : L’AMOUR DE MA VIE (BILLIE BY FINNEAS).m4v
Format                                   : MPEG-4
Codec ID                                 : M4V  (M4V /isom/iso2/avc1)
File size                                : 266 MiB
Duration                                 : 5 min 33 s
Overall bit rate                         : 6 679 kb/s
Frame rate                               : 29.970 FPS
Movie name                               : L’AMOUR DE MA VIE (BILLIE BY FINNEAS)
Performer                                : Billie Eilish
Genre                                    : Alternative
ContentType                              : Music Video
Recorded date                            : 2024-05-22 07:00:00 UTC
Copyright                                : ℗ 2024 Darkroom/Interscope Records
Cover                                    : Yes
Rating                                   : None
GenreID                                  : 1620
AlbumTitleID                             : 1065981054
AppleStoreCatalogID                      : 1747830554

Video
ID                                       : 1
Format                                   : AVC
Format/Info                              : Advanced Video Codec
Format profile                           : High@L4
Format settings                          : CABAC / 4 Ref Frames
Format settings, CABAC                   : Yes
Format settings, Reference frames        : 4 frames
Format settings, Slice count             : 8 slices per frame
Codec ID                                 : avc1
Codec ID/Info                            : Advanced Video Coding
Duration                                 : 5 min 33 s
Bit rate                                 : 6 413 kb/s
Width                                    : 1 920 pixels
Height                                   : 1 078 pixels
Display aspect ratio                     : 16:9
Frame rate mode                          : Constant
Frame rate                               : 29.970 (30000/1001) FPS
Color space                              : YUV
Chroma subsampling                       : 4:2:0
Bit depth                                : 8 bits
Scan type                                : Progressive
Bits/(Pixel*Frame)                       : 0.103
Stream size                              : 255 MiB (96%)
Title                                    : Core Media Video
Color range                              : Limited
Color primaries                          : BT.709
Transfer characteristics                 : BT.709
Matrix coefficients                      : BT.709
Codec configuration box                  : avcC

Audio
ID                                       : 2
Format                                   : AAC LC
Format/Info                              : Advanced Audio Codec Low Complexity
Codec ID                                 : 2 / 40 / mp4a-40-2
Duration                                 : 5 min 33 s
Bit rate mode                            : Constant
Bit rate                                 : 251 kb/s
Channel(s)                               : 2 channels
Channel layout                           : L R
Sampling rate                            : 48.0 kHz
Frame rate                               : 46.875 FPS (1024 SPF)
Compression mode                         : Lossy
Stream size                              : 9.97 MiB (4%)
Title                                    : Core Media Audio
Default                                  : Yes
Alternate group                          : 1

General
Complete name                            : LUNCH (BILLIE BY FINNEAS).m4v
Format                                   : MPEG-4
Codec ID                                 : M4V  (M4V /isom/iso2/avc1)
File size                                : 146 MiB
Duration                                 : 2 min 58 s
Overall bit rate                         : 6 854 kb/s
Frame rate                               : 29.970 FPS
Movie name                               : LUNCH (BILLIE BY FINNEAS)
Performer                                : Billie Eilish
Genre                                    : Alternative
ContentType                              : Music Video
Recorded date                            : 2024-05-22 07:00:00 UTC
Copyright                                : ℗ 2024 Darkroom/Interscope Records
Cover                                    : Yes
Rating                                   : None
GenreID                                  : 1620
AlbumTitleID                             : 1065981054
AppleStoreCatalogID                      : 1747829467

Video
ID                                       : 1
Format                                   : AVC
Format/Info                              : Advanced Video Codec
Format profile                           : High@L4
Format settings                          : CABAC / 4 Ref Frames
Format settings, CABAC                   : Yes
Format settings, Reference frames        : 4 frames
Format settings, Slice count             : 8 slices per frame
Codec ID                                 : avc1
Codec ID/Info                            : Advanced Video Coding
Duration                                 : 2 min 58 s
Bit rate                                 : 6 579 kb/s
Width                                    : 1 920 pixels
Height                                   : 1 078 pixels
Display aspect ratio                     : 16:9
Frame rate mode                          : Constant
Frame rate                               : 29.970 (30000/1001) FPS
Color space                              : YUV
Chroma subsampling                       : 4:2:0
Bit depth                                : 8 bits
Scan type                                : Progressive
Bits/(Pixel*Frame)                       : 0.106
Stream size                              : 140 MiB (96%)
Title                                    : Core Media Video
Color range                              : Limited
Color primaries                          : BT.709
Transfer characteristics                 : BT.709
Matrix coefficients                      : BT.709
Codec configuration box                  : avcC

Audio
ID                                       : 2
Format                                   : AAC LC
Format/Info                              : Advanced Audio Codec Low Complexity
Codec ID                                 : 2 / 40 / mp4a-40-2
Duration                                 : 2 min 58 s
Bit rate mode                            : Constant
Bit rate                                 : 257 kb/s
Channel(s)                               : 2 channels
Channel layout                           : L R
Sampling rate                            : 48.0 kHz
Frame rate                               : 46.875 FPS (1024 SPF)
Compression mode                         : Lossy
Stream size                              : 5.47 MiB (4%)
Title                                    : Core Media Audio
Default                                  : Yes
Alternate group                          : 1

General
Complete name                            : THE DINER (BILLIE BY FINNEAS).m4v
Format                                   : MPEG-4
Codec ID                                 : M4V  (M4V /isom/iso2/avc1)
File size                                : 150 MiB
Duration                                 : 3 min 6 s
Overall bit rate                         : 6 774 kb/s
Frame rate                               : 29.970 FPS
Movie name                               : THE DINER (BILLIE BY FINNEAS)
Performer                                : Billie Eilish
Genre                                    : Alternative
ContentType                              : Music Video
Recorded date                            : 2024-05-22 07:00:00 UTC
Copyright                                : ℗ 2024 Darkroom/Interscope Records
Cover                                    : Yes
Rating                                   : None
GenreID                                  : 1620
AlbumTitleID                             : 1065981054
AppleStoreCatalogID                      : 1747829553

Video
ID                                       : 1
Format                                   : AVC
Format/Info                              : Advanced Video Codec
Format profile                           : High@L4
Format settings                          : CABAC / 4 Ref Frames
Format settings, CABAC                   : Yes
Format settings, Reference frames        : 4 frames
Format settings, Slice count             : 8 slices per frame
Codec ID                                 : avc1
Codec ID/Info                            : Advanced Video Coding
Duration                                 : 3 min 6 s
Bit rate                                 : 6 507 kb/s
Width                                    : 1 920 pixels
Height                                   : 1 078 pixels
Display aspect ratio                     : 16:9
Frame rate mode                          : Constant
Frame rate                               : 29.970 (30000/1001) FPS
Color space                              : YUV
Chroma subsampling                       : 4:2:0
Bit depth                                : 8 bits
Scan type                                : Progressive
Bits/(Pixel*Frame)                       : 0.105
Stream size                              : 144 MiB (96%)
Title                                    : Core Media Video
Color range                              : Limited
Color primaries                          : BT.709
Transfer characteristics                 : BT.709
Matrix coefficients                      : BT.709
Codec configuration box                  : avcC

Audio
ID                                       : 2
Format                                   : AAC LC
Format/Info                              : Advanced Audio Codec Low Complexity
Codec ID                                 : 2 / 40 / mp4a-40-2
Duration                                 : 3 min 6 s
Bit rate mode                            : Constant
Bit rate                                 : 251 kb/s
Channel(s)                               : 2 channels
Channel layout                           : L R
Sampling rate                            : 48.0 kHz
Frame rate                               : 46.875 FPS (1024 SPF)
Compression mode                         : Lossy
Stream size                              : 5.57 MiB (4%)
Title                                    : Core Media Audio
Default                                  : Yes
Alternate group                          : 1

General
Complete name                            : THE GREATEST (BILLIE BY FINNEAS).m4v
Format                                   : MPEG-4
Codec ID                                 : M4V  (M4V /isom/iso2/avc1)
File size                                : 231 MiB
Duration                                 : 4 min 45 s
Overall bit rate                         : 6 787 kb/s
Frame rate                               : 29.970 FPS
Movie name                               : THE GREATEST (BILLIE BY FINNEAS)
Performer                                : Billie Eilish
Genre                                    : Alternative
ContentType                              : Music Video
Recorded date                            : 2024-05-17 07:00:00 UTC
Copyright                                : ℗ 2024 Darkroom/Interscope Records
Cover                                    : Yes
Rating                                   : None
GenreID                                  : 1620
AlbumTitleID                             : 1065981054
AppleStoreCatalogID                      : 1747829255

Video
ID                                       : 1
Format                                   : AVC
Format/Info                              : Advanced Video Codec
Format profile                           : High@L4
Format settings                          : CABAC / 4 Ref Frames
Format settings, CABAC                   : Yes
Format settings, Reference frames        : 4 frames
Format settings, Slice count             : 8 slices per frame
Codec ID                                 : avc1
Codec ID/Info                            : Advanced Video Coding
Duration                                 : 4 min 45 s
Bit rate                                 : 6 519 kb/s
Width                                    : 1 920 pixels
Height                                   : 1 078 pixels
Display aspect ratio                     : 16:9
Frame rate mode                          : Constant
Frame rate                               : 29.970 (30000/1001) FPS
Color space                              : YUV
Chroma subsampling                       : 4:2:0
Bit depth                                : 8 bits
Scan type                                : Progressive
Bits/(Pixel*Frame)                       : 0.105
Stream size                              : 222 MiB (96%)
Title                                    : Core Media Video
Color range                              : Limited
Color primaries                          : BT.709
Transfer characteristics                 : BT.709
Matrix coefficients                      : BT.709
Codec configuration box                  : avcC

Audio
ID                                       : 2
Format                                   : AAC LC
Format/Info                              : Advanced Audio Codec Low Complexity
Codec ID                                 : 2 / 40 / mp4a-40-2
Duration                                 : 4 min 45 s
Bit rate mode                            : Constant
Bit rate                                 : 251 kb/s
Channel(s)                               : 2 channels
Channel layout                           : L R
Sampling rate                            : 48.0 kHz
Frame rate                               : 46.875 FPS (1024 SPF)
Compression mode                         : Lossy
Stream size                              : 8.53 MiB (4%)
Title                                    : Core Media Audio
Default                                  : Yes
Alternate group                          : 1

General
Complete name                            : WILDFLOWER (BILLIE BY FINNEAS).m4v
Format                                   : MPEG-4
Codec ID                                 : M4V  (M4V /isom/iso2/avc1)
File size                                : 213 MiB
Duration                                 : 4 min 21 s
Overall bit rate                         : 6 841 kb/s
Frame rate                               : 29.970 FPS
Movie name                               : WILDFLOWER (BILLIE BY FINNEAS)
Performer                                : Billie Eilish
Genre                                    : Alternative
ContentType                              : Music Video
Recorded date                            : 2024-05-22 07:00:00 UTC
Copyright                                : ℗ 2024 Darkroom/Interscope Records
Cover                                    : Yes
Rating                                   : None
GenreID                                  : 1620
AlbumTitleID                             : 1065981054
AppleStoreCatalogID                      : 1747829085

Video
ID                                       : 1
Format                                   : AVC
Format/Info                              : Advanced Video Codec
Format profile                           : High@L4
Format settings                          : CABAC / 4 Ref Frames
Format settings, CABAC                   : Yes
Format settings, Reference frames        : 4 frames
Format settings, Slice count             : 8 slices per frame
Codec ID                                 : avc1
Codec ID/Info                            : Advanced Video Coding
Duration                                 : 4 min 21 s
Bit rate                                 : 6 568 kb/s
Width                                    : 1 920 pixels
Height                                   : 1 078 pixels
Display aspect ratio                     : 16:9
Frame rate mode                          : Constant
Frame rate                               : 29.970 (30000/1001) FPS
Color space                              : YUV
Chroma subsampling                       : 4:2:0
Bit depth                                : 8 bits
Scan type                                : Progressive
Bits/(Pixel*Frame)                       : 0.106
Stream size                              : 204 MiB (96%)
Title                                    : Core Media Video
Color range                              : Limited
Color primaries                          : BT.709
Transfer characteristics                 : BT.709
Matrix coefficients                      : BT.709
Codec configuration box                  : avcC

Audio
ID                                       : 2
Format                                   : AAC LC
Format/Info                              : Advanced Audio Codec Low Complexity
Codec ID                                 : 2 / 40 / mp4a-40-2
Duration                                 : 4 min 21 s
Bit rate mode                            : Constant
Bit rate                                 : 254 kb/s
Channel(s)                               : 2 channels
Channel layout                           : L R
Sampling rate                            : 48.0 kHz
Frame rate                               : 46.875 FPS (1024 SPF)
Compression mode                         : Lossy
Stream size                              : 7.91 MiB (4%)
Title                                    : Core Media Audio
Default                                  : Yes
Alternate group                          : 1

</pre>
</div><div style="text-align: center">​</div></div>
</div><div style="text-align: center">
<div class="bbCodeBlock bbCodeVfcHH HiddenContent">
<div class="attribution type">Hidden Content:</div>
<blockquote>You must reply before you can see the hidden data contained here.</blockquote>
</div></div>
<div class="messageTextEndMarker">&nbsp;</div>
</blockquote>
</article>]]></description>
                <author><![CDATA[fstambuk]]></author>
                </item>

                
                <item>
                <title><![CDATA[【Music Videos】Evanescence - Going Under [1080p-AI-Upscale]]]></title>
                <link><![CDATA[https://sharemania.us/threads/evanescence-going-under-1080p-ai-upscale.244997/]]></link>
                <description><![CDATA[<article>
<blockquote class="messageText SelectQuoteContainer ugc baseHtml">
Thanks<img src="styles/default/xenforo/smilies/big_smile-48.png" class="mceSmilie" alt=":)" title="Smile    :)">
<div class="messageTextEndMarker">&nbsp;</div>
</blockquote>
</article>]]></description>
                <author><![CDATA[XRB80]]></author>
                </item>

                
                <item>
                <title><![CDATA[【Music Videos】Evanescence Feat. Paul McCoy - Bring Me To Life [1080p-AI-Upscale].]]></title>
                <link><![CDATA[https://sharemania.us/threads/evanescence-feat-paul-mccoy-bring-me-to-life-1080p-ai-upscale.244998/]]></link>
                <description><![CDATA[<article>
<blockquote class="messageText SelectQuoteContainer ugc baseHtml">
Thanks
<div class="messageTextEndMarker">&nbsp;</div>
</blockquote>
</article>]]></description>
                <author><![CDATA[XRB80]]></author>
                </item>

                </channel></rss>